<mxfile host="app.diagrams.net" modified="2024-05-31T10:55:57.405Z" agent="Mozilla/5.0 (Windows NT 10.0; Win64; x64; rv:126.0) Gecko/20100101 Firefox/126.0" etag="DCs7Bnx0GHlRYQIITdMS" version="24.4.11" type="github">
  <diagram name="PÃ¡gina-1" id="dFE5cLqysacLS7TJj8_u">
    <mxGraphModel dx="1050" dy="530" grid="1" gridSize="10" guides="1" tooltips="1" connect="1" arrows="1" fold="1" page="0" pageScale="1" pageWidth="827" pageHeight="1169" math="0" shadow="0">
      <root>
        <mxCell id="0" />
        <mxCell id="1" parent="0" />
        <mxCell id="dtWVywpVT3FUBwVM9ysm-11" value="" style="edgeStyle=orthogonalEdgeStyle;rounded=0;orthogonalLoop=1;jettySize=auto;html=1;" parent="1" source="dtWVywpVT3FUBwVM9ysm-1" target="dtWVywpVT3FUBwVM9ysm-2" edge="1">
          <mxGeometry relative="1" as="geometry" />
        </mxCell>
        <mxCell id="dtWVywpVT3FUBwVM9ysm-1" value="&lt;div&gt;Train&lt;/div&gt;&lt;div&gt;db&lt;/div&gt;" style="shape=cylinder3;whiteSpace=wrap;html=1;boundedLbl=1;backgroundOutline=1;size=15;" parent="1" vertex="1">
          <mxGeometry x="81" y="120" width="60" height="80" as="geometry" />
        </mxCell>
        <mxCell id="dtWVywpVT3FUBwVM9ysm-13" value="" style="edgeStyle=orthogonalEdgeStyle;rounded=0;orthogonalLoop=1;jettySize=auto;html=1;" parent="1" source="dtWVywpVT3FUBwVM9ysm-2" target="dtWVywpVT3FUBwVM9ysm-3" edge="1">
          <mxGeometry relative="1" as="geometry" />
        </mxCell>
        <mxCell id="dtWVywpVT3FUBwVM9ysm-2" value="Data Processing" style="rounded=1;whiteSpace=wrap;html=1;" parent="1" vertex="1">
          <mxGeometry x="200" y="130" width="120" height="60" as="geometry" />
        </mxCell>
        <mxCell id="dtWVywpVT3FUBwVM9ysm-14" value="" style="edgeStyle=orthogonalEdgeStyle;rounded=0;orthogonalLoop=1;jettySize=auto;html=1;" parent="1" source="dtWVywpVT3FUBwVM9ysm-3" target="dtWVywpVT3FUBwVM9ysm-4" edge="1">
          <mxGeometry relative="1" as="geometry" />
        </mxCell>
        <mxCell id="dtWVywpVT3FUBwVM9ysm-3" value="ML Model Build" style="rounded=1;whiteSpace=wrap;html=1;" parent="1" vertex="1">
          <mxGeometry x="380" y="130" width="120" height="60" as="geometry" />
        </mxCell>
        <mxCell id="dtWVywpVT3FUBwVM9ysm-15" value="" style="edgeStyle=orthogonalEdgeStyle;rounded=0;orthogonalLoop=1;jettySize=auto;html=1;" parent="1" source="dtWVywpVT3FUBwVM9ysm-4" target="dtWVywpVT3FUBwVM9ysm-6" edge="1">
          <mxGeometry relative="1" as="geometry" />
        </mxCell>
        <mxCell id="dtWVywpVT3FUBwVM9ysm-4" value="Model Deployment" style="rounded=1;whiteSpace=wrap;html=1;" parent="1" vertex="1">
          <mxGeometry x="560" y="130" width="120" height="60" as="geometry" />
        </mxCell>
        <mxCell id="f8kolSa-3I_YF06uZfdp-3" value="" style="edgeStyle=orthogonalEdgeStyle;rounded=0;orthogonalLoop=1;jettySize=auto;html=1;" edge="1" parent="1" source="dtWVywpVT3FUBwVM9ysm-5" target="f8kolSa-3I_YF06uZfdp-1">
          <mxGeometry relative="1" as="geometry" />
        </mxCell>
        <mxCell id="dtWVywpVT3FUBwVM9ysm-5" value="&lt;div&gt;Test&lt;/div&gt;&lt;div&gt;db&lt;/div&gt;" style="shape=cylinder3;whiteSpace=wrap;html=1;boundedLbl=1;backgroundOutline=1;size=15;" parent="1" vertex="1">
          <mxGeometry x="230" y="240" width="60" height="80" as="geometry" />
        </mxCell>
        <mxCell id="dtWVywpVT3FUBwVM9ysm-22" value="" style="edgeStyle=orthogonalEdgeStyle;rounded=0;orthogonalLoop=1;jettySize=auto;html=1;" parent="1" source="dtWVywpVT3FUBwVM9ysm-6" target="dtWVywpVT3FUBwVM9ysm-21" edge="1">
          <mxGeometry relative="1" as="geometry" />
        </mxCell>
        <mxCell id="dtWVywpVT3FUBwVM9ysm-6" value="Request to the API" style="rounded=1;whiteSpace=wrap;html=1;" parent="1" vertex="1">
          <mxGeometry x="560" y="250" width="120" height="60" as="geometry" />
        </mxCell>
        <mxCell id="dtWVywpVT3FUBwVM9ysm-7" value="" style="endArrow=none;dashed=1;html=1;dashPattern=1 3;strokeWidth=2;rounded=0;" parent="1" edge="1">
          <mxGeometry width="50" height="50" relative="1" as="geometry">
            <mxPoint x="40" y="210" as="sourcePoint" />
            <mxPoint x="40" y="210" as="targetPoint" />
            <Array as="points">
              <mxPoint x="690" y="210" />
              <mxPoint x="690" y="110" />
              <mxPoint x="40" y="110" />
            </Array>
          </mxGeometry>
        </mxCell>
        <mxCell id="dtWVywpVT3FUBwVM9ysm-21" value="Final Prediction" style="whiteSpace=wrap;html=1;rounded=1;" parent="1" vertex="1">
          <mxGeometry x="720" y="250" width="120" height="60" as="geometry" />
        </mxCell>
        <mxCell id="dtWVywpVT3FUBwVM9ysm-23" value="&lt;b&gt;Training Pipeline&lt;/b&gt;" style="text;html=1;align=center;verticalAlign=middle;whiteSpace=wrap;rounded=0;" parent="1" vertex="1">
          <mxGeometry x="260" y="80" width="190" height="30" as="geometry" />
        </mxCell>
        <mxCell id="dtWVywpVT3FUBwVM9ysm-28" value="" style="endArrow=none;dashed=1;html=1;dashPattern=1 3;strokeWidth=2;rounded=0;" parent="1" edge="1">
          <mxGeometry width="50" height="50" relative="1" as="geometry">
            <mxPoint x="400" y="330" as="sourcePoint" />
            <mxPoint x="400" y="330" as="targetPoint" />
            <Array as="points">
              <mxPoint x="220" y="330" />
              <mxPoint x="220" y="230" />
              <mxPoint x="690" y="230" />
              <mxPoint x="690" y="330" />
            </Array>
          </mxGeometry>
        </mxCell>
        <mxCell id="dtWVywpVT3FUBwVM9ysm-29" value="&lt;b&gt;Inference Pipeline&lt;/b&gt;" style="text;html=1;align=center;verticalAlign=middle;whiteSpace=wrap;rounded=0;" parent="1" vertex="1">
          <mxGeometry x="380" y="330" width="120" height="30" as="geometry" />
        </mxCell>
        <mxCell id="f8kolSa-3I_YF06uZfdp-2" value="" style="edgeStyle=orthogonalEdgeStyle;rounded=0;orthogonalLoop=1;jettySize=auto;html=1;" edge="1" parent="1" source="f8kolSa-3I_YF06uZfdp-1" target="dtWVywpVT3FUBwVM9ysm-6">
          <mxGeometry relative="1" as="geometry" />
        </mxCell>
        <mxCell id="f8kolSa-3I_YF06uZfdp-1" value="&lt;div&gt;Data Processing&lt;/div&gt;" style="rounded=1;whiteSpace=wrap;html=1;" vertex="1" parent="1">
          <mxGeometry x="380" y="250" width="120" height="60" as="geometry" />
        </mxCell>
      </root>
    </mxGraphModel>
  </diagram>
</mxfile>
